<svg id="visual" viewBox="0 0 900 600" width="900" height="600" xmlns="http://www.w3.org/2000/svg" xmlns:xlink="http://www.w3.org/1999/xlink" version="1.1"><g transform="translate(457.42090160049725 297.09472401194313)"><path d="M156.2 -173.2C199.7 -149.7 230.3 -97.8 235.6 -44.9C241 8 220.9 62 189.6 103.2C158.3 144.4 115.8 172.7 70.1 186.9C24.4 201.1 -24.4 201.1 -65.8 184.4C-107.1 167.7 -141 134.4 -178.1 92.2C-215.1 50 -255.3 -1.1 -251 -47.5C-246.7 -94 -197.9 -135.8 -148.7 -158.4C-99.4 -181 -49.7 -184.2 3.3 -188.2C56.4 -192.2 112.7 -196.8 156.2 -173.2" fill="#BB004B"></path></g></svg>