<svg id="Layer_1" data-name="Layer 1" xmlns="http://www.w3.org/2000/svg" xmlns:xlink="http://www.w3.org/1999/xlink" viewBox="0 0 557.91 320.85"><defs><linearGradient id="linear-gradient" y1="160.42" x2="554.2" y2="160.42" gradientUnits="userSpaceOnUse"><stop offset="0" stop-color="#ff7300"/><stop offset="0.22" stop-color="#f97c01"/><stop offset="0.59" stop-color="#ea9602"/><stop offset="0.69" stop-color="#e59e03"/><stop offset="0.95" stop-color="#a017ff"/><stop offset="1" stop-color="#a900d4"/></linearGradient><linearGradient id="linear-gradient-2" y1="89.83" x2="554.2" y2="89.83" xlink:href="#linear-gradient"/><linearGradient id="linear-gradient-3" x1="202.27" y1="315.85" x2="475.52" y2="315.85" xlink:href="#linear-gradient"/></defs><path d="M469.67,154.07c-1.09-.38-2.21-1.33-3.37-1.39-17.82-.83-165.12,0-176.62.36l-89.35,2.4c1.06,25.32,7.26,50.61,16.68,74.14a137.17,137.17,0,0,0,198.7,65.19C452.6,258.7,475.27,205.36,469.67,154.07Z" style="fill:aqua"/><path d="M5,105.29c4.45,31.11,36,55.76,67.22,52.6s57.21-33.61,55.35-65c-1.13-19-16.32-39.56-35.08-36.36-9.55,1.64-17.31,9.2-21.4,18s-5,18.7-5.23,28.39c-.51,24.71,4.82,52,24.34,67.17,17.74,13.79,43.75,13.68,63.74,3.42s37.42-28,43.77-49.59C210.16,81.64,214.23,48.47,217.65,5c-8.75,46.33-16.91,91.86-15,140.28,2.7,69.11,18.42,94.23,50.41,128.87,24.05,26.06,61.88,42.5,98.56,41.67s73.26-19.37,93.16-50.19c21.89-33.89,20.08-48.34,23.9-74.28a635.86,635.86,0,0,0,.45-181.51c-1.51,15.4-3,31-.92,46.29s8.18,30.62,19.68,41,29,14.72,43,8.17,17.55-24.12,14.4-38.8c-2.79-10.55-14.85-15.21-21.5-8a31,31,0,0,0-2.59,32.25l.18.34" style="fill:none;stroke-linecap:round;stroke-linejoin:round;stroke-width:10px;stroke:url(#linear-gradient)"/><path d="M541.59,119.18a7.49,7.49,0,0,1-10.33,2.43,7.38,7.38,0,0,1-3-3.61l-5.91-25a2.65,2.65,0,0,1-1.67,0l-6.85,22.66-.56,1.85a7.52,7.52,0,0,1-14.34-3.32,7.59,7.59,0,0,1,1.5-4.32l0,0,1.73-1.63.12-.08.12-.07.12-.07,16.71-15.85a2.76,2.76,0,0,1-.81-1.53l-24.92,5.91c-.37,0-.68,0-1,0a7.51,7.51,0,0,1,.45-15,6.62,6.62,0,0,1,1,.12l.05,0,2,.6.16.1h.14l22.1,6.57a4.12,4.12,0,0,1,.35-.8,3.67,3.67,0,0,1,.57-.67L503.13,70.29l-1.32-1.4a5.78,5.78,0,0,1-.56-.86,7.57,7.57,0,0,1,3.08-10.19,7.43,7.43,0,0,1,10.14,3.06c.17.31.28.6.45.92l.27,1,5.65,23.89a2.58,2.58,0,0,1,1.67,0l6.78-22.56.54-1.92.07-.11a3.56,3.56,0,0,1,.4-.77,7.53,7.53,0,0,1,12.82,7.91,5.45,5.45,0,0,1-.57.81l-.07.11-.12.07-1,.91-.3.26L524,87.61a2.64,2.64,0,0,1,.76,1.49L548,83.58l1.28-.3a7.48,7.48,0,0,1,4.62,14,7.55,7.55,0,0,1-4.75.86l-.06,0-1.84-.55-22.55-6.78a4.73,4.73,0,0,1-.35.8,4,4,0,0,1-.57.67L540,109.54l.21.13,1.09,1.18A7.59,7.59,0,0,1,541.59,119.18Z" style="fill:url(#linear-gradient-2)"/><line x1="207.27" y1="315.85" x2="470.52" y2="315.85" style="fill:none;stroke-linecap:round;stroke-linejoin:round;stroke-width:10px;stroke:url(#linear-gradient-3)"/></svg>